<?xml version="1.0" encoding="UTF-8" standalone="no"?>
<svg
   xmlns:dc="http://purl.org/dc/elements/1.1/"
   xmlns:cc="http://creativecommons.org/ns#"
   xmlns:rdf="http://www.w3.org/1999/02/22-rdf-syntax-ns#"
   xmlns:svg="http://www.w3.org/2000/svg"
   xmlns="http://www.w3.org/2000/svg"
   xmlns:sodipodi="http://sodipodi.sourceforge.net/DTD/sodipodi-0.dtd"
   xmlns:inkscape="http://www.inkscape.org/namespaces/inkscape"
   width="15"
   height="15"
   viewBox="-15000 0 0 1000"
   version="1.1"
   xml:space="preserve"
   style="clip-rule:evenodd;fill-rule:evenodd;stroke-linejoin:round;stroke-miterlimit:1.41420996"
   id="svg3402"
   inkscape:version="0.91 r13725"
   sodipodi:docname="avalanche-15.svg"><metadata
     id="metadata3412"><rdf:RDF><cc:Work
         rdf:about=""><dc:format>image/svg+xml</dc:format><dc:type
           rdf:resource="http://purl.org/dc/dcmitype/StillImage" /><dc:title></dc:title></cc:Work></rdf:RDF></metadata><defs
     id="defs3410" /><sodipodi:namedview
     pagecolor="#ffffff"
     bordercolor="#666666"
     borderopacity="1"
     objecttolerance="10"
     gridtolerance="10"
     guidetolerance="10"
     inkscape:pageopacity="0"
     inkscape:pageshadow="2"
     inkscape:window-width="1284"
     inkscape:window-height="761"
     id="namedview3408"
     showgrid="false"
     inkscape:zoom="37.266667"
     inkscape:cx="7.5"
     inkscape:cy="7.5"
     inkscape:window-x="0"
     inkscape:window-y="0"
     inkscape:window-maximized="0"
     inkscape:current-layer="svg3402" /><g
     id="g3421"
     transform="scale(0.015,0.015)"><circle
       id="circle3404"
       style="fill:#5d9fb3"
       r="500"
       cy="500"
       cx="500" /><path
       id="path3406"
       style="fill:#ffffff"
       d="M 918.008,333.16 C 938.646,384.762 950,441.066 950,500 950,748.362 748.362,950 500,950 370.822,950 254.284,895.452 172.183,808.152 L 918.008,333.16 Z m -458.56,152.658 c 4.868,-13.853 37.942,-65.746 125.869,-65.64 28.359,0.034 134.334,-20.482 185,-38.724 0,0 -524.345,326.593 -549.833,343.245 C 168.094,758.927 37.403,666.515 84.096,589.01 63.332,563.241 52.339,438.681 187.53,402.661 c 44.77,-69.923 151.504,-41.065 151.596,12.517 -37.256,10.112 -65.061,45.606 -64,73.808 40.433,-102.129 198.013,-87.518 184.322,-3.168 -0.576,1.636 -0.757,2.742 -0.589,3.168 0.223,-1.066 0.419,-2.123 0.589,-3.168 z m -328.445,87.041 c -32.355,32.099 -26.352,89.55 16.201,103.318 -39.455,-32.519 -28.122,-107.467 40.326,-127.637 -22.087,-1.496 -36.287,5.753 -46.046,14.699 -15.584,-41.022 25.229,-67.708 60.611,-74.253 -45.547,-14.053 -94.193,36.56 -71.092,83.873 z m 359.992,-226.203 -43.579,-6.133 -16.264,9.823 4.715,38.142 11.403,0.035 22.514,27.167 16.022,-6.951 14.194,-46.527 -9.005,-15.556 z m 71.802,19.976 -10.546,-8.215 -23.251,3.371 -4.579,10.408 -2.176,17.65 15.885,11.587 27.129,-17.824 -2.462,-16.977 z m 193.878,-9.81 20.125,-38.839 -5.162,-35.296 -40.524,-1.567 -16.364,23.286 -25.661,20.525 18.173,34.994 49.413,-3.103 z"
       inkscape:connector-curvature="0" /></g></svg>