<?xml version="1.0" encoding="UTF-8" standalone="no"?>
<svg
   xmlns:dc="http://purl.org/dc/elements/1.1/"
   xmlns:cc="http://creativecommons.org/ns#"
   xmlns:rdf="http://www.w3.org/1999/02/22-rdf-syntax-ns#"
   xmlns:svg="http://www.w3.org/2000/svg"
   xmlns="http://www.w3.org/2000/svg"
   xmlns:sodipodi="http://sodipodi.sourceforge.net/DTD/sodipodi-0.dtd"
   xmlns:inkscape="http://www.inkscape.org/namespaces/inkscape"
   width="15"
   height="15"
   viewBox="-15000 0 0 1000"
   version="1.1"
   xml:space="preserve"
   style="clip-rule:evenodd;fill-rule:evenodd;stroke-linejoin:round;stroke-miterlimit:1.41420996"
   id="svg2"
   inkscape:version="0.91 r13725"
   sodipodi:docname="disease-15.svg"><metadata
     id="metadata12"><rdf:RDF><cc:Work
         rdf:about=""><dc:format>image/svg+xml</dc:format><dc:type
           rdf:resource="http://purl.org/dc/dcmitype/StillImage" /><dc:title></dc:title></cc:Work></rdf:RDF></metadata><defs
     id="defs10" /><sodipodi:namedview
     pagecolor="#ffffff"
     bordercolor="#666666"
     borderopacity="1"
     objecttolerance="10"
     gridtolerance="10"
     guidetolerance="10"
     inkscape:pageopacity="0"
     inkscape:pageshadow="2"
     inkscape:window-width="1132"
     inkscape:window-height="724"
     id="namedview8"
     showgrid="false"
     inkscape:zoom="34.8"
     inkscape:cx="7.5"
     inkscape:cy="7.5"
     inkscape:window-x="0"
     inkscape:window-y="0"
     inkscape:window-maximized="0"
     inkscape:current-layer="svg2" /><g
     id="g3340"
     transform="matrix(0.015,0,0,0.015,0,14.775)"><circle
       id="circle4"
       style="fill:#73a22e"
       r="500"
       cy="-485"
       cx="500" /><path
       inkscape:connector-curvature="0"
       id="path6"
       style="fill:#ffffff"
       d="m 440.504,-436.216 12.723,-7.346 c 11.454,12.916 28.17,21.062 46.773,21.062 18.603,0 35.319,-8.146 46.773,-21.062 l 12.723,7.346 c -38.45,79.412 -9.533,176.361 68.081,221.172 56.139,32.411 123.161,29.121 174.702,-2.806 -68.687,54.797 -166.688,65.168 -247.333,18.607 -21.198,-12.239 -39.589,-27.482 -54.946,-44.884 -15.357,17.402 -33.748,32.645 -54.946,44.884 -80.645,46.561 -178.646,36.19 -247.333,-18.607 51.541,31.927 118.563,35.217 174.702,2.806 77.614,-44.811 106.531,-141.76 68.081,-221.172 z m -139.489,-69.038 c 12.729,1.271 25.257,4.132 36.938,8.037 -0.3,4.033 -0.453,8.107 -0.453,12.217 0,64.688 37.88,120.598 92.649,146.74 -2.337,12.165 -5.954,24.633 -11.081,36.183 C 348.956,-333.175 300,-403.415 300,-485 c 0,-6.837 0.344,-13.593 1.015,-20.254 z m 397.854,-1.117 c 0.748,7.022 1.131,14.152 1.131,21.371 0,81.186 -48.479,151.139 -118.043,182.465 -5.265,-11.659 -9.051,-23.94 -11.512,-36.01 54.449,-26.262 92.055,-82.001 92.055,-146.455 0,-4.333 -0.17,-8.626 -0.504,-12.874 11.702,-4.058 24.308,-7.161 36.873,-8.497 z M 512.5,-560.917 c 87.999,-6.407 157.5,-79.924 157.5,-169.546 0,-64.823 -36.36,-121.221 -89.781,-149.893 81.8,32.086 139.781,111.772 139.781,204.893 0,24.477 -4.006,48.026 -11.398,70.027 22.749,4.598 45.146,12.903 66.344,25.142 80.645,46.561 120.664,136.617 107.552,223.5 1.879,-60.599 -28.782,-120.287 -84.921,-152.699 -77.614,-44.811 -176.033,-21.379 -225.581,51.626 l -12.703,-7.334 c 2.08,-6.222 3.207,-12.88 3.207,-19.799 0,-30.214 -21.487,-55.45 -50,-61.247 l 0,-14.67 z m -84.496,103.05 c -49.548,-73.005 -147.967,-96.437 -225.581,-51.626 -56.139,32.412 -86.8,92.1 -84.921,152.699 -13.112,-86.883 26.907,-176.939 107.552,-223.5 21.198,-12.239 43.595,-20.544 66.344,-25.142 -7.392,-22.001 -11.398,-45.55 -11.398,-70.027 0,-93.121 57.981,-172.807 139.781,-204.893 -53.421,28.672 -89.781,85.07 -89.781,149.893 0,89.622 69.501,163.139 157.5,169.546 l 0,14.67 c -28.513,5.797 -50,31.033 -50,61.247 0,6.919 1.127,13.577 3.207,19.799 l -12.703,7.334 z M 382.079,-646.511 C 415.151,-670.709 455.92,-685 500,-685 c 43.678,0 84.104,14.031 117.013,37.829 -7.465,10.383 -16.205,19.796 -25.424,27.956 C 565.503,-637.059 533.961,-647.5 500,-647.5 c -34.197,0 -65.942,10.586 -92.131,28.658 -9.362,-8.1 -18.35,-17.46 -25.79,-27.669 z" /></g></svg>