<?xml version="1.0" encoding="UTF-8" standalone="no"?>
<svg
   xmlns:dc="http://purl.org/dc/elements/1.1/"
   xmlns:cc="http://creativecommons.org/ns#"
   xmlns:rdf="http://www.w3.org/1999/02/22-rdf-syntax-ns#"
   xmlns:svg="http://www.w3.org/2000/svg"
   xmlns="http://www.w3.org/2000/svg"
   xmlns:sodipodi="http://sodipodi.sourceforge.net/DTD/sodipodi-0.dtd"
   xmlns:inkscape="http://www.inkscape.org/namespaces/inkscape"
   width="15"
   height="15"
   viewBox="-15000 0 0 1000"
   version="1.1"
   xml:space="preserve"
   style="clip-rule:evenodd;fill-rule:evenodd;stroke-linejoin:round;stroke-miterlimit:1.41420996"
   id="svg2"
   inkscape:version="0.91 r13725"
   sodipodi:docname="earthquake-15.svg"><metadata
     id="metadata12"><rdf:RDF><cc:Work
         rdf:about=""><dc:format>image/svg+xml</dc:format><dc:type
           rdf:resource="http://purl.org/dc/dcmitype/StillImage" /><dc:title></dc:title></cc:Work></rdf:RDF></metadata><defs
     id="defs10" /><sodipodi:namedview
     pagecolor="#ffffff"
     bordercolor="#666666"
     borderopacity="1"
     objecttolerance="10"
     gridtolerance="10"
     guidetolerance="10"
     inkscape:pageopacity="0"
     inkscape:pageshadow="2"
     inkscape:window-width="1067"
     inkscape:window-height="758"
     id="namedview8"
     showgrid="false"
     inkscape:zoom="37.066667"
     inkscape:cx="7.5"
     inkscape:cy="7.5"
     inkscape:window-x="0"
     inkscape:window-y="0"
     inkscape:window-maximized="0"
     inkscape:current-layer="svg2" /><g
     id="g3340"
     transform="scale(0.015,0.015)"><circle
       id="circle4"
       style="fill:#746547"
       r="500"
       cy="500"
       cx="500" /><path
       id="path6"
       style="fill:#ffffff"
       d="M 916.992,330.642 C 938.273,382.929 950,440.106 950,500 950,748.362 748.362,950 500,950 251.638,950 50,748.362 50,500 c 0,-15.676 0.803,-31.165 2.371,-46.429 L 440,480 400,645 475,775 400,900 500,775 450,625 610,370 916.992,330.642 Z M 480.003,448.03 441.449,339.237 371.42,322 l -20.613,36.918 21.883,70.43 107.313,18.682 z m 75.561,-172.394 -70.561,18.139 31.978,133.534 37.635,-74.306 0.948,-77.367 z"
       inkscape:connector-curvature="0" /></g></svg>