<?xml version="1.0" encoding="UTF-8" standalone="no"?>
<svg
   xmlns:dc="http://purl.org/dc/elements/1.1/"
   xmlns:cc="http://creativecommons.org/ns#"
   xmlns:rdf="http://www.w3.org/1999/02/22-rdf-syntax-ns#"
   xmlns:svg="http://www.w3.org/2000/svg"
   xmlns="http://www.w3.org/2000/svg"
   xmlns:sodipodi="http://sodipodi.sourceforge.net/DTD/sodipodi-0.dtd"
   xmlns:inkscape="http://www.inkscape.org/namespaces/inkscape"
   width="15"
   height="15"
   viewBox="-15000 0 0 1000"
   version="1.1"
   xml:space="preserve"
   style="clip-rule:evenodd;fill-rule:evenodd;stroke-linejoin:round;stroke-miterlimit:1.41420996"
   id="svg2"
   inkscape:version="0.91 r13725"
   sodipodi:docname="fire-15.svg"><metadata
     id="metadata12"><rdf:RDF><cc:Work
         rdf:about=""><dc:format>image/svg+xml</dc:format><dc:type
           rdf:resource="http://purl.org/dc/dcmitype/StillImage" /><dc:title></dc:title></cc:Work></rdf:RDF></metadata><defs
     id="defs10" /><sodipodi:namedview
     pagecolor="#ffffff"
     bordercolor="#666666"
     borderopacity="1"
     objecttolerance="10"
     gridtolerance="10"
     guidetolerance="10"
     inkscape:pageopacity="0"
     inkscape:pageshadow="2"
     inkscape:window-width="966"
     inkscape:window-height="677"
     id="namedview8"
     showgrid="false"
     inkscape:zoom="0.236"
     inkscape:cx="525.42373"
     inkscape:cy="500"
     inkscape:window-x="0"
     inkscape:window-y="0"
     inkscape:window-maximized="0"
     inkscape:current-layer="svg2" /><g
     id="g3340"
     transform="scale(0.015,0.015)"><circle
       id="circle4"
       style="fill:#a53935"
       r="500"
       cy="500"
       cx="500" /><path
       id="path6"
       style="fill:#ffffff"
       d="M 691.239,671.792 C 738.144,779.331 674.91,922.899 510.396,922.005 390.225,921.352 352.25,845.056 329.059,802.632 305.868,760.208 292.197,641.717 376.909,522.806 520.993,320.555 314.769,254.335 484.589,77.991 c -31.041,90.996 32.926,174.157 83.859,238.931 19.689,-29.997 32.749,-62.888 10.648,-119.087 195.039,205.566 28,281.045 112.143,473.957 z M 456.42,549.493 C 334.244,794.534 520.948,867.119 577.263,809.632 652.859,732.463 536.098,669.998 568.949,525.806 537.674,556.237 528.285,633.479 534.705,686.127 521.831,682.178 456.32,640.634 456.42,549.493 Z M 274.54,720.498 c -4.349,-277.77 90.991,-206.239 0,-386.995 26.228,144.738 -93.893,110.478 0,386.995 z m 450.372,-102 c 5.086,-100.209 84.619,-130.073 -6.372,-233.995 26.228,83.215 -44.085,124.962 6.372,233.995 z M 503.354,613.46 C 515.629,472.114 620.127,500.194 560.448,403.002 541.199,495.573 455.165,480.544 503.354,613.46 Z M 390.122,344.643 c 6.473,41.102 1.877,66.19 -40.189,130.673 31.052,-129.138 -77.756,-112.879 31.355,-295.847 -16.507,94.717 0.142,109.988 8.834,165.174 z"
       inkscape:connector-curvature="0" /></g></svg>