<?xml version="1.0" encoding="UTF-8" standalone="no"?>
<svg
   xmlns:dc="http://purl.org/dc/elements/1.1/"
   xmlns:cc="http://creativecommons.org/ns#"
   xmlns:rdf="http://www.w3.org/1999/02/22-rdf-syntax-ns#"
   xmlns:svg="http://www.w3.org/2000/svg"
   xmlns="http://www.w3.org/2000/svg"
   xmlns:sodipodi="http://sodipodi.sourceforge.net/DTD/sodipodi-0.dtd"
   xmlns:inkscape="http://www.inkscape.org/namespaces/inkscape"
   width="15"
   height="15"
   viewBox="-15000 0 0 1000"
   version="1.1"
   xml:space="preserve"
   style="clip-rule:evenodd;fill-rule:evenodd;stroke-linejoin:round;stroke-miterlimit:1.41420996"
   id="svg2"
   inkscape:version="0.91 r13725"
   sodipodi:docname="floods-15.svg"><metadata
     id="metadata12"><rdf:RDF><cc:Work
         rdf:about=""><dc:format>image/svg+xml</dc:format><dc:type
           rdf:resource="http://purl.org/dc/dcmitype/StillImage" /><dc:title></dc:title></cc:Work></rdf:RDF></metadata><defs
     id="defs10" /><sodipodi:namedview
     pagecolor="#ffffff"
     bordercolor="#666666"
     borderopacity="1"
     objecttolerance="10"
     gridtolerance="10"
     guidetolerance="10"
     inkscape:pageopacity="0"
     inkscape:pageshadow="2"
     inkscape:window-width="945"
     inkscape:window-height="692"
     id="namedview8"
     showgrid="false"
     inkscape:zoom="32.666667"
     inkscape:cx="7.5"
     inkscape:cy="7.5"
     inkscape:window-x="0"
     inkscape:window-y="0"
     inkscape:window-maximized="0"
     inkscape:current-layer="svg2" /><g
     id="g3340"
     transform="scale(0.015,0.015)"><circle
       id="circle4"
       style="fill:#3fabb7"
       r="500"
       cy="500"
       cx="500" /><path
       id="path6"
       style="fill:#ffffff"
       d="M 50.404,480.797 C 58.622,480.68 67.428,476.998 75,472 c 8.333,-5.5 25,-22 25,-22 0,0 16.667,16.5 25,22 7.696,5.08 16.667,8.8 25,8.8 8.333,0 17.304,-3.72 25,-8.8 8.333,-5.5 25,-22 25,-22 0,0 16.667,16.5 25,22 7.696,5.08 16.667,8.8 25,8.8 8.333,0 17.304,-3.72 25,-8.8 8.333,-5.5 25,-22 25,-22 0,0 16.667,16.5 25,22 7.696,5.08 16.667,8.8 25,8.8 8.333,0 17.304,-3.72 25,-8.8 8.333,-5.5 25,-22 25,-22 0,0 16.667,16.5 25,22 7.696,5.08 16.667,8.8 25,8.8 8.333,0 17.304,-3.72 25,-8.8 8.333,-5.5 25,-22 25,-22 0,0 16.667,16.5 25,22 7.696,5.08 16.667,8.8 25,8.8 8.333,0 17.304,-3.72 25,-8.8 8.333,-5.5 25,-22 25,-22 0,0 16.667,16.5 25,22 7.696,5.08 16.667,8.8 25,8.8 8.333,0 17.304,-3.72 25,-8.8 8.333,-5.5 25,-22 25,-22 0,0 16.667,16.5 25,22 7.696,5.08 16.667,8.8 25,8.8 8.333,0 17.304,-3.72 25,-8.8 8.333,-5.5 25,-22 25,-22 0,0 16.667,16.5 25,22 7.696,5.08 16.667,8.8 25,8.8 8.333,0 17.304,-3.72 25,-8.8 8.333,-5.5 25,-22 25,-22 0,0 16.667,16.5 25,22 7.572,4.998 16.378,8.68 24.596,8.797 C 949.865,487.165 950,493.567 950,500 950,748.362 748.362,950 500,950 251.638,950 50,748.362 50,500 c 0,-6.433 0.135,-12.835 0.404,-19.203 z M 350,452 l 0,-127 150,-100 150,100 0,127 c -8.334,0 -17.304,-6.718 -25,-13.159 -8.333,-6.974 -25,-27.897 -25,-27.897 0,0 -16.667,20.923 -25,27.897 -7.696,6.441 -16.667,13.159 -25,13.159 -8.333,0 -17.304,-6.718 -25,-13.159 -8.333,-6.974 -25,-27.897 -25,-27.897 0,0 -16.667,20.923 -25,27.897 -7.696,6.441 -16.667,13.159 -25,13.159 -8.333,0 -17.304,-6.718 -25,-13.159 -8.333,-6.974 -25,-27.897 -25,-27.897 0,0 -16.667,20.923 -25,27.897 C 367.304,445.282 358.334,452 350,452 Z M 680,305 500,185 320,305 l 0,20 180,-120 180,120 0,-20 z"
       inkscape:connector-curvature="0" /></g></svg>