<?xml version="1.0" encoding="UTF-8" standalone="no"?>
<svg
   xmlns:dc="http://purl.org/dc/elements/1.1/"
   xmlns:cc="http://creativecommons.org/ns#"
   xmlns:rdf="http://www.w3.org/1999/02/22-rdf-syntax-ns#"
   xmlns:svg="http://www.w3.org/2000/svg"
   xmlns="http://www.w3.org/2000/svg"
   xmlns:sodipodi="http://sodipodi.sourceforge.net/DTD/sodipodi-0.dtd"
   xmlns:inkscape="http://www.inkscape.org/namespaces/inkscape"
   width="15"
   height="15"
   viewBox="-15000 0 0 1000"
   version="1.1"
   xml:space="preserve"
   style="clip-rule:evenodd;fill-rule:evenodd;stroke-linejoin:round;stroke-miterlimit:1.41420996"
   id="svg2"
   inkscape:version="0.91 r13725"
   sodipodi:docname="landslide-15.svg"><metadata
     id="metadata12"><rdf:RDF><cc:Work
         rdf:about=""><dc:format>image/svg+xml</dc:format><dc:type
           rdf:resource="http://purl.org/dc/dcmitype/StillImage" /><dc:title></dc:title></cc:Work></rdf:RDF></metadata><defs
     id="defs10" /><sodipodi:namedview
     pagecolor="#ffffff"
     bordercolor="#666666"
     borderopacity="1"
     objecttolerance="10"
     gridtolerance="10"
     guidetolerance="10"
     inkscape:pageopacity="0"
     inkscape:pageshadow="2"
     inkscape:window-width="931"
     inkscape:window-height="642"
     id="namedview8"
     showgrid="false"
     inkscape:zoom="29.333333"
     inkscape:cx="7.5"
     inkscape:cy="7.5"
     inkscape:window-x="14"
     inkscape:window-y="32"
     inkscape:window-maximized="0"
     inkscape:current-layer="svg2" /><circle
     cx="7.5"
     cy="7.5"
     style="fill:#aa8e61"
     id="circle4"
     r="7.5" /><path
     d="M 13.466775,4.34317 C 13.966725,5.2854 14.25,6.35988 14.25,7.5 c 0,3.72543 -3.02457,6.75 -6.75,6.75 -2.029635,0 -3.85125,-0.89774 -5.08908,-2.31746 L 3.36,10.725 6,9.675 6.93,8.10329 11.265,6.62454 13.466775,4.34317 Z M 4.530405,9.4413 3.75714,8.28342 2.520615,7.9269 l -0.46254,0.60461 -0.00414,0.59242 -0.25536,0.34445 0.91773,0.81131 0.50073,3e-4 1.31337,-0.83869 z M 5.701215,9.0714 5.263905,9.42074 4.810815,8.92155 4.85787,8.51823 5.485815,8.1969 6.04761,8.2259 5.701215,9.07138 Z M 4.598895,8.22777 5.655975,7.44292 5.711985,6.19557 4.88943,5.65449 3.262755,6.35621 3.196845,7.30548 4.00314,7.67429 4.598895,8.22777 Z M 7.058025,6.15361 7.785075,6.64693 7.249365,7.3797 6.444885,7.72865 6.477045,6.84788 6.332535,6.51471 7.058025,6.15361 Z M 8.46834,6.66328 8.550855,6.8062 8.67579,6.9037 9.344655,6.7225 9.227385,6.22506 9.093975,6.03586 8.802615,6.10506 8.46834,6.66325 Z M 9.85431,5.00713 9.7548,5.05803 9.62814,5.08353 9.465075,5.45506 9.818505,5.6545 9.98805,5.6152 10.14834,5.39806 9.85431,5.00717 Z"
     style="fill:#ffffff"
     id="path6"
     inkscape:connector-curvature="0" /></svg>