<?xml version="1.0" encoding="UTF-8" standalone="no"?>
<svg
   xmlns:dc="http://purl.org/dc/elements/1.1/"
   xmlns:cc="http://creativecommons.org/ns#"
   xmlns:rdf="http://www.w3.org/1999/02/22-rdf-syntax-ns#"
   xmlns:svg="http://www.w3.org/2000/svg"
   xmlns="http://www.w3.org/2000/svg"
   xmlns:sodipodi="http://sodipodi.sourceforge.net/DTD/sodipodi-0.dtd"
   xmlns:inkscape="http://www.inkscape.org/namespaces/inkscape"
   width="15"
   height="15"
   viewBox="-15000 0 0 1000"
   version="1.1"
   xml:space="preserve"
   style="clip-rule:evenodd;fill-rule:evenodd;stroke-linejoin:round;stroke-miterlimit:1.41420996"
   id="svg2"
   inkscape:version="0.91 r13725"
   sodipodi:docname="manmade-15.svg"><metadata
     id="metadata12"><rdf:RDF><cc:Work
         rdf:about=""><dc:format>image/svg+xml</dc:format><dc:type
           rdf:resource="http://purl.org/dc/dcmitype/StillImage" /><dc:title></dc:title></cc:Work></rdf:RDF></metadata><defs
     id="defs10" /><sodipodi:namedview
     pagecolor="#ffffff"
     bordercolor="#666666"
     borderopacity="1"
     objecttolerance="10"
     gridtolerance="10"
     guidetolerance="10"
     inkscape:pageopacity="0"
     inkscape:pageshadow="2"
     inkscape:window-width="904"
     inkscape:window-height="634"
     id="namedview8"
     showgrid="false"
     inkscape:zoom="28.8"
     inkscape:cx="7.5"
     inkscape:cy="7.5"
     inkscape:window-x="0"
     inkscape:window-y="0"
     inkscape:window-maximized="0"
     inkscape:current-layer="svg2" /><g
     id="g3340"
     transform="scale(0.015,0.015)"><circle
       id="circle4"
       style="fill:#262626"
       r="500"
       cy="500"
       cx="500" /><path
       id="path6"
       style="fill:#ffffff"
       d="M 119.427,740.105 C 231.702,731.365 397.419,720 500,720 602.581,720 768.298,731.365 880.573,740.105 800.803,866.2 660.111,950 500,950 339.889,950 199.197,866.2 119.427,740.105 Z m 604.45,-630.472 c 51.13,29.408 95.951,68.572 131.912,114.944 L 712.058,372.515 c 17.689,145.292 -60.75,161.545 -107.457,259.294 -6.204,12.984 -36.746,-8.335 -11.616,-61.082 18.858,-39.584 61.739,-71.669 27.697,-100.887 -5.084,-4.363 -31.01,-12.47 -78.432,10.941 -79.527,39.261 -123.105,112.022 -150.26,144.036 -16.454,19.398 -39.047,3.986 -26.564,-31.692 7.821,-22.356 81.377,-121.186 140.05,-153.06 -92.402,26.146 -154.13,110.857 -169.771,133.263 -25.957,37.186 -53.438,8.685 -32.384,-29.172 16.296,-29.3 52.138,-86.68 164.122,-150.568 -84.013,22.064 -141.437,91.774 -156.561,108.031 -31.236,33.579 -50.687,1.857 -25.778,-31.692 15.39,-20.729 47.461,-67.004 134.61,-110.214 -31.282,4.765 -83.583,28.767 -122.987,73.83 -24.546,28.072 -45.492,7.073 -19.635,-27.353 59.332,-78.996 225.476,-126.313 291.223,-137.722 25.599,-4.442 90.632,-77.845 155.562,-158.835 z"
       inkscape:connector-curvature="0" /></g></svg>