<?xml version="1.0" encoding="UTF-8" standalone="no"?>
<svg
   xmlns:dc="http://purl.org/dc/elements/1.1/"
   xmlns:cc="http://creativecommons.org/ns#"
   xmlns:rdf="http://www.w3.org/1999/02/22-rdf-syntax-ns#"
   xmlns:svg="http://www.w3.org/2000/svg"
   xmlns="http://www.w3.org/2000/svg"
   xmlns:sodipodi="http://sodipodi.sourceforge.net/DTD/sodipodi-0.dtd"
   xmlns:inkscape="http://www.inkscape.org/namespaces/inkscape"
   width="15"
   height="15"
   viewBox="-15000 0 0 1000"
   version="1.1"
   xml:space="preserve"
   style="clip-rule:evenodd;fill-rule:evenodd;stroke-linejoin:round;stroke-miterlimit:1.41420996"
   id="svg2"
   inkscape:version="0.91 r13725"
   sodipodi:docname="sandstorm-15.svg"><metadata
     id="metadata12"><rdf:RDF><cc:Work
         rdf:about=""><dc:format>image/svg+xml</dc:format><dc:type
           rdf:resource="http://purl.org/dc/dcmitype/StillImage" /><dc:title></dc:title></cc:Work></rdf:RDF></metadata><defs
     id="defs10" /><sodipodi:namedview
     pagecolor="#ffffff"
     bordercolor="#666666"
     borderopacity="1"
     objecttolerance="10"
     gridtolerance="10"
     guidetolerance="10"
     inkscape:pageopacity="0"
     inkscape:pageshadow="2"
     inkscape:window-width="1057"
     inkscape:window-height="731"
     id="namedview8"
     showgrid="false"
     inkscape:zoom="0.236"
     inkscape:cx="525.42373"
     inkscape:cy="500"
     inkscape:window-x="0"
     inkscape:window-y="0"
     inkscape:window-maximized="0"
     inkscape:current-layer="svg2" /><g
     id="g3340"
     transform="matrix(0.015,0,0,0.015,0,2.09312)"><circle
       id="circle4"
       style="fill:#b8aa45"
       r="500"
       cy="502.125"
       cx="500" /><path
       id="path6"
       style="fill:#ffffff"
       d="M 909.366,687 C 838.319,842.128 681.658,950 500,950 318.342,950 161.681,842.128 90.634,687 l 818.732,0 z M 548.312,652.315 c -174.564,0.14 -364.875,0.415 -364.875,0.415 199.935,-27.709 177.556,-134.08 321.115,-73.854 -61.615,-64.251 66.309,-163.357 155.814,-97.364 -14.045,-24.479 -56.434,-39.845 -93.387,-28.679 -28.316,-45.488 46.907,-126.521 121.927,-90.948 133.737,-41.093 190.421,70.364 186.467,103.221 80.67,40.984 18.808,188.61 -43.759,187.346 -11.99,-0.242 -115.1,-0.251 -235.687,-0.171 -2.743,0.35 -5.492,0.498 -8.241,0.435 -5.673,-0.131 -19.589,-0.266 -39.374,-0.401 z M 184.414,591.524 c -82.857,-87.342 90.784,-220.946 211.781,-131.203 -18.946,-33.239 -76.351,-54.233 -126.49,-39.238 -38.21,-61.775 90.389,-147.655 165.642,-92.823 48.858,-67.054 167.019,-56.706 192.818,2.626 -42.063,-5.488 -114.429,41.218 -95.186,117.947 -32.541,8.161 -72.076,38.639 -68.479,92.691 -120.545,-36.644 -123.977,95.034 -375.511,109.068 67.912,-14.48 94.079,-56.116 95.425,-59.068 z M 344.5,619.5 c 5.519,0 10,4.481 10,10 0,5.519 -4.481,10 -10,10 -5.519,0 -10,-4.481 -10,-10 0,-5.519 4.481,-10 10,-10 z m -235.432,-9 c 5.519,0 10,4.481 10,10 0,5.519 -4.481,10 -10,10 -5.519,0 -10,-4.481 -10,-10 0,-5.519 4.481,-10 10,-10 z m 262.432,-12 c 5.519,0 10,4.481 10,10 0,5.519 -4.481,10 -10,10 -5.519,0 -10,-4.481 -10,-10 0,-5.519 4.481,-10 10,-10 z M 153.068,580.568 c 5.519,0 10,4.481 10,10 0,5.519 -4.481,10 -10,10 -5.519,0 -10,-4.481 -10,-10 0,-5.519 4.481,-10 10,-10 z m 31.346,10.956 0.176,0.187 c -0.051,-0.283 -0.107,-0.338 -0.176,-0.187 z m 349.898,-35.648 c 5.519,0 10,4.48 10,10 0,5.519 -4.481,10 -10,10 -5.519,0 -10,-4.481 -10,-10 0,-5.52 4.481,-10 10,-10 z m -403.244,-1.308 c 5.519,0 10,4.481 10,10 0,5.519 -4.481,10 -10,10 -5.519,0 -10,-4.481 -10,-10 0,-5.519 4.481,-10 10,-10 z m 695.967,-78.302 c 44.448,10.076 69.802,61.979 41.011,96.204 16.227,-48.485 -33.1,-106.04 -101.835,-86.872 17.937,-12.974 33.821,-14.351 46.838,-11.936 -8.523,-43.047 -57.275,-44.05 -90.749,-30.851 31.178,-36.054 99.254,-18.91 104.735,33.455 z M 196.414,547.5 c 5.519,0 10,4.481 10,10 0,5.519 -4.481,10 -10,10 -5.519,0 -10,-4.481 -10,-10 0,-5.519 4.481,-10 10,-10 z m 324.377,-24.777 c 5.519,0 10,4.48 10,10 0,5.519 -4.481,10 -10,10 -5.519,0 -10,-4.481 -10,-10 0,-5.52 4.481,-10 10,-10 z m 29.521,-18.125 c 5.519,0 10,4.48 10,10 0,5.519 -4.481,10 -10,10 -5.519,0 -10,-4.481 -10,-10 0,-5.52 4.481,-10 10,-10 z M 228.5,476.266 c 5.519,0 10,4.481 10,10 0,5.519 -4.481,10 -10,10 -5.519,0 -10,-4.481 -10,-10 0,-5.519 4.481,-10 10,-10 z m 27,-20.766 c 5.519,0 10,4.481 10,10 0,5.519 -4.481,10 -10,10 -5.519,0 -10,-4.481 -10,-10 0,-5.519 4.481,-10 10,-10 z m -44,-29.689 c 5.519,0 10,4.481 10,10 0,5.519 -4.481,10 -10,10 -5.519,0 -10,-4.481 -10,-10 0,-5.519 4.481,-10 10,-10 z m 384,-14.728 c 5.519,0 10,4.481 10,10 0,5.519 -4.481,10 -10,10 -5.519,0 -10,-4.481 -10,-10 0,-5.519 4.481,-10 10,-10 z m -355,-4.762 c 5.519,0 10,4.481 10,10 0,5.52 -4.481,10 -10,10 -5.519,0 -10,-4.48 -10,-10 0,-5.519 4.481,-10 10,-10 z M 619.165,384.5 c 5.519,0 10,4.481 10,10 0,5.519 -4.481,10 -10,10 -5.519,0 -10,-4.481 -10,-10 0,-5.519 4.481,-10 10,-10 z m -324.665,-3 c 5.519,0 10,4.481 10,10 0,5.519 -4.481,10 -10,10 -5.519,0 -10,-4.481 -10,-10 0,-5.519 4.481,-10 10,-10 z m 44,0 c 5.519,0 10,4.481 10,10 0,5.519 -4.481,10 -10,10 -5.519,0 -10,-4.481 -10,-10 0,-5.519 4.481,-10 10,-10 z m -22,-28 c 5.519,0 10,4.481 10,10 0,5.519 -4.481,10 -10,10 -5.519,0 -10,-4.481 -10,-10 0,-5.519 4.481,-10 10,-10 z"
       inkscape:connector-curvature="0" /></g></svg>