<?xml version="1.0" encoding="UTF-8" standalone="no"?>
<svg
   xmlns:dc="http://purl.org/dc/elements/1.1/"
   xmlns:cc="http://creativecommons.org/ns#"
   xmlns:rdf="http://www.w3.org/1999/02/22-rdf-syntax-ns#"
   xmlns:svg="http://www.w3.org/2000/svg"
   xmlns="http://www.w3.org/2000/svg"
   xmlns:sodipodi="http://sodipodi.sourceforge.net/DTD/sodipodi-0.dtd"
   xmlns:inkscape="http://www.inkscape.org/namespaces/inkscape"
   width="15"
   height="15"
   viewBox="-15000 0 0 1000"
   version="1.1"
   xml:space="preserve"
   style="clip-rule:evenodd;fill-rule:evenodd;stroke-linejoin:round;stroke-miterlimit:1.41420996"
   id="svg2"
   inkscape:version="0.91 r13725"
   sodipodi:docname="tsunami-15.svg"><metadata
     id="metadata14"><rdf:RDF><cc:Work
         rdf:about=""><dc:format>image/svg+xml</dc:format><dc:type
           rdf:resource="http://purl.org/dc/dcmitype/StillImage" /><dc:title></dc:title></cc:Work></rdf:RDF></metadata><defs
     id="defs12" /><sodipodi:namedview
     pagecolor="#ffffff"
     bordercolor="#666666"
     borderopacity="1"
     objecttolerance="10"
     gridtolerance="10"
     guidetolerance="10"
     inkscape:pageopacity="0"
     inkscape:pageshadow="2"
     inkscape:window-width="1003"
     inkscape:window-height="755"
     id="namedview10"
     showgrid="false"
     inkscape:zoom="36.866667"
     inkscape:cx="7.5"
     inkscape:cy="7.5"
     inkscape:window-x="0"
     inkscape:window-y="0"
     inkscape:window-maximized="0"
     inkscape:current-layer="svg2" /><g
     id="g3342"
     transform="scale(0.015,0.015)"><circle
       id="circle4"
       style="fill:#297c89"
       r="500"
       cy="500"
       cx="500" /><path
       id="path6"
       style="fill:#ffffff"
       d="m 111,662.11 0,-48.119 75,-49.994 75,49.994 0,72.765 c -17.181,13.332 -46.791,-13.672 -61,-41.62 -14.852,27.612 -55.062,68.225 -89,16.974 z m 165,-68.118 0,14.999 -90,-59.992 -90,59.992 0,-14.999 90,-59.992 90,59.992 z"
       inkscape:connector-curvature="0" /><path
       id="path8"
       style="fill:#ffffff"
       d="M 89.054,683.512 C 94.97,677.292 100,671.368 100,671.368 c 33.341,40.619 66.674,38.739 100,0 35.512,43.83 68.778,42.481 100,0 490.169,242.633 538.809,-421.731 185.581,-357.925 l -0.001,0 c 56.258,3.337 55.916,79.471 14.42,98.245 -62.391,28.228 -159.907,-59.995 -87.935,-130.65 -34.836,10.532 -42.427,47.417 -40.234,68.159 C 296.018,228.116 708.224,13.132 932.471,375.31 943.884,414.911 950,456.747 950,500 950,748.362 748.362,950 500,950 316.984,950 159.339,840.508 89.054,683.512 Z M 645.792,286.754 c 44.465,26.401 106.124,112.168 108.512,182.852 19.012,-80.232 -53.164,-171.81 -108.512,-182.852 z m -92.52,-39.984 c 87.412,1.412 133.72,19.502 193.552,88.018 -17.88,-62.314 -86.508,-113.284 -193.552,-88.018 z"
       inkscape:connector-curvature="0" /></g></svg>