<?xml version="1.0" encoding="UTF-8" standalone="no"?>
<svg
   xmlns:dc="http://purl.org/dc/elements/1.1/"
   xmlns:cc="http://creativecommons.org/ns#"
   xmlns:rdf="http://www.w3.org/1999/02/22-rdf-syntax-ns#"
   xmlns:svg="http://www.w3.org/2000/svg"
   xmlns="http://www.w3.org/2000/svg"
   xmlns:sodipodi="http://sodipodi.sourceforge.net/DTD/sodipodi-0.dtd"
   xmlns:inkscape="http://www.inkscape.org/namespaces/inkscape"
   width="15"
   height="15"
   viewBox="-15000 0 0 1000"
   version="1.1"
   xml:space="preserve"
   style="clip-rule:evenodd;fill-rule:evenodd;stroke-linejoin:round;stroke-miterlimit:1.41420996"
   id="svg2"
   inkscape:version="0.91 r13725"
   sodipodi:docname="tornado-15.svg"><metadata
     id="metadata12"><rdf:RDF><cc:Work
         rdf:about=""><dc:format>image/svg+xml</dc:format><dc:type
           rdf:resource="http://purl.org/dc/dcmitype/StillImage" /><dc:title></dc:title></cc:Work></rdf:RDF></metadata><defs
     id="defs10" /><sodipodi:namedview
     pagecolor="#ffffff"
     bordercolor="#666666"
     borderopacity="1"
     objecttolerance="10"
     gridtolerance="10"
     guidetolerance="10"
     inkscape:pageopacity="0"
     inkscape:pageshadow="2"
     inkscape:window-width="934"
     inkscape:window-height="717"
     id="namedview8"
     showgrid="false"
     inkscape:zoom="33.533333"
     inkscape:cx="7.5"
     inkscape:cy="7.5"
     inkscape:window-x="0"
     inkscape:window-y="0"
     inkscape:window-maximized="0"
     inkscape:current-layer="svg2" /><g
     id="g3340"
     transform="scale(0.015,0.015)"><circle
       id="circle4"
       style="fill:#3e4e59"
       r="500"
       cy="500"
       cx="500" /><path
       id="path6"
       style="fill:#ffffff"
       d="m 152.67,786 308.652,0 c -0.076,1.356 -0.115,2.724 -0.115,4.102 0,35.869 26.15,58.898 58.359,58.898 32.209,0 58.359,-23.029 58.359,-58.898 0,-1.378 -0.039,-2.746 -0.115,-4.102 l 269.52,0 C 764.767,886.127 639.784,950 500,950 360.216,950 235.233,886.127 152.67,786 Z m 336.097,1.055 c 16.186,8.437 44.073,11.701 61.898,3.841 2.239,46.138 -69.599,39.022 -61.898,-3.841 z m -21.56,-69.228 c 41.268,21.251 87.345,21.537 121.394,0 -2.311,69.197 -124.106,50.776 -121.394,0 z m -12.604,-75.325 c 54.5,34.322 127.036,30.103 156.311,5.781 1.308,68.7 -147.01,76.552 -156.311,-5.781 z m -3.587,-74.146 c 63.429,46.383 158.668,31.124 191.396,12.97 -14.247,70.659 -186.385,73.025 -191.396,-12.97 z m 0,-57.089 c 71.16,26.914 197.344,14.301 247.514,-18.92 -5.011,84.205 -237.968,97.823 -247.514,18.92 z m -26.934,-70.095 c 104.512,25.609 221.395,17.792 303.387,-23.616 15.937,74.608 -284.605,112.696 -303.387,23.616 z M 315,352.074 c 130,37.646 340.343,36.862 449,-11 7.277,86.401 -410.338,116.264 -449,11 z M 763.508,265.573 C 782.448,325.382 645.328,348.682 486,341 369.026,335.36 223,314.765 223,278.574 223,228.615 316.712,194.996 402,183 c 400.124,-56.28 424.792,112.243 28.978,82.573 247.471,-15.658 254.917,-84.726 0,-43.573 -360.14,58.14 166.922,127.173 332.53,43.573 z"
       inkscape:connector-curvature="0" /></g></svg>