<?xml version="1.0" encoding="UTF-8" standalone="no"?>
<svg
   xmlns:dc="http://purl.org/dc/elements/1.1/"
   xmlns:cc="http://creativecommons.org/ns#"
   xmlns:rdf="http://www.w3.org/1999/02/22-rdf-syntax-ns#"
   xmlns:svg="http://www.w3.org/2000/svg"
   xmlns="http://www.w3.org/2000/svg"
   xmlns:sodipodi="http://sodipodi.sourceforge.net/DTD/sodipodi-0.dtd"
   xmlns:inkscape="http://www.inkscape.org/namespaces/inkscape"
   width="15"
   height="15"
   viewBox="-15000 0 0 1000"
   version="1.1"
   xml:space="preserve"
   style="clip-rule:evenodd;fill-rule:evenodd;stroke-linejoin:round;stroke-miterlimit:1.41420996"
   id="svg2"
   inkscape:version="0.91 r13725"
   sodipodi:docname="volcano-15.svg"><metadata
     id="metadata12"><rdf:RDF><cc:Work
         rdf:about=""><dc:format>image/svg+xml</dc:format><dc:type
           rdf:resource="http://purl.org/dc/dcmitype/StillImage" /><dc:title></dc:title></cc:Work></rdf:RDF></metadata><defs
     id="defs10" /><sodipodi:namedview
     pagecolor="#ffffff"
     bordercolor="#666666"
     borderopacity="1"
     objecttolerance="10"
     gridtolerance="10"
     guidetolerance="10"
     inkscape:pageopacity="0"
     inkscape:pageshadow="2"
     inkscape:window-width="1107"
     inkscape:window-height="764"
     id="namedview8"
     showgrid="false"
     inkscape:zoom="37.466667"
     inkscape:cx="7.5"
     inkscape:cy="9.0937977"
     inkscape:window-x="0"
     inkscape:window-y="0"
     inkscape:window-maximized="0"
     inkscape:current-layer="svg2" /><g
     id="g3340"
     transform="matrix(0.015,0,0,0.015,0,14.743125)"><circle
       id="circle4"
       style="fill:#c8703c"
       r="500"
       cy="-482.875"
       cx="500" /><path
       inkscape:connector-curvature="0"
       id="path6"
       style="fill:#ffffff"
       d="M 882.676,-248.252 C 803.292,-120.29 661.527,-35 500,-35 337.855,-35 195.625,-120.943 116.417,-249.722 L 378,-611.105 c 81.711,38.617 156.612,38.05 225,0 l 279.676,362.853 z M 605.527,-471.36 c 0,0 63.555,203.154 97.498,287.522 3.475,8.636 13.307,12.826 21.942,9.352 8.636,-3.475 12.826,-13.306 9.352,-21.942 C 700.375,-280.796 605.527,-471.36 605.527,-471.36 Z m -243.34,-11.515 c 0,0 -100.019,135.302 -136.671,196.981 -4.755,8.002 -2.119,18.359 5.883,23.114 8.003,4.756 18.36,2.119 23.115,-5.883 36.651,-61.679 107.673,-214.212 107.673,-214.212 z m 178.23,-30.544 c 0,0 -0.443,124.746 6.007,177.395 1.048,8.551 8.84,14.642 17.391,13.595 8.55,-1.048 14.642,-8.84 13.594,-17.391 -6.45,-52.649 -36.992,-173.599 -36.992,-173.599 z M 500,-611.105 c -4.129,-71.774 -0.23,-146.809 25.757,-229.947 l 15.875,3.5 c -29.774,84.418 -38.009,155.923 -41.632,226.447 z m -70.895,-25.231 c -30.403,-51.745 -57.675,-84.923 -112.749,-133.375 l 10.31,-10.879 c 47.087,43.985 79.25,92.698 102.439,144.254 z m 136.688,-1.266 c 3.418,-54.594 18.31,-104.066 56.826,-142.988 l 11.924,11.442 c -39.149,29.312 -56.526,75.131 -68.75,131.546 z m -249.386,-184.87 -40.559,-17.08 -18.236,5.335 -5.201,38.079 11.014,2.951 14.814,32.023 17.266,-2.62 25.627,-41.346 -4.725,-17.342 z m 343.028,57.564 42.347,-10.966 22.818,-27.419 -25.903,-31.204 -28.259,3.377 -32.415,-5.387 -13.904,36.9 35.316,34.699 z m -74.156,-102.402 -3.802,-22.778 -34.088,-27.439 -18.372,4.927 -23.934,15.814 6.666,33.475 56.395,17.287 17.135,-21.286 z" /></g></svg>