<?xml version="1.0" encoding="UTF-8" standalone="no"?>
<svg
   xmlns:dc="http://purl.org/dc/elements/1.1/"
   xmlns:cc="http://creativecommons.org/ns#"
   xmlns:rdf="http://www.w3.org/1999/02/22-rdf-syntax-ns#"
   xmlns:svg="http://www.w3.org/2000/svg"
   xmlns="http://www.w3.org/2000/svg"
   xmlns:sodipodi="http://sodipodi.sourceforge.net/DTD/sodipodi-0.dtd"
   xmlns:inkscape="http://www.inkscape.org/namespaces/inkscape"
   width="15"
   height="15"
   viewBox="-15000 0 0 1000"
   version="1.1"
   xml:space="preserve"
   style="clip-rule:evenodd;fill-rule:evenodd;stroke-linejoin:round;stroke-miterlimit:1.41420996"
   id="svg2"
   inkscape:version="0.91 r13725"
   sodipodi:docname="weather-15.svg"><metadata
     id="metadata12"><rdf:RDF><cc:Work
         rdf:about=""><dc:format>image/svg+xml</dc:format><dc:type
           rdf:resource="http://purl.org/dc/dcmitype/StillImage" /><dc:title></dc:title></cc:Work></rdf:RDF></metadata><defs
     id="defs10" /><sodipodi:namedview
     pagecolor="#ffffff"
     bordercolor="#666666"
     borderopacity="1"
     objecttolerance="10"
     gridtolerance="10"
     guidetolerance="10"
     inkscape:pageopacity="0"
     inkscape:pageshadow="2"
     inkscape:window-width="1062"
     inkscape:window-height="764"
     id="namedview8"
     showgrid="false"
     inkscape:zoom="37.466667"
     inkscape:cx="7.5"
     inkscape:cy="7.5"
     inkscape:window-x="0"
     inkscape:window-y="0"
     inkscape:window-maximized="0"
     inkscape:current-layer="svg2" /><g
     id="g3340"
     transform="scale(0.015,0.015)"><circle
       id="circle4"
       style="fill:#2f5581"
       r="500"
       cy="500"
       cx="500" /><path
       id="path6"
       style="fill:#ffffff"
       d="m 256.934,515.679 c -0.428,0.044 -108.07,11.054 -101.237,-85.494 2.212,-31.256 37.022,-61.722 58.204,-58.589 -10.193,-16.45 -1.902,-75.423 66.015,-101.478 34.584,-13.267 92.354,-20.649 158.133,11.704 0,0 -13.265,-20.021 -43.268,-27.745 35.553,-91.35 264.047,-63.553 266.205,-19.027 1.738,-13.317 -5.919,-24.842 -23.818,-30.329 42.842,-21.123 162.02,46.594 128.789,143.875 61.449,-11.905 102.102,85.454 46.678,118.712 0.101,-14.332 -7.297,-24.388 -7.962,-24.087 8.844,53.763 -38.465,72.36 -38.716,72.458 l -203.764,0 -26.461,54.161 79.259,14.816 -204.796,278.666 102.232,-229.187 -69.278,-14.212 38.536,-104.244 -224.751,0 z M 660.986,357.385 c -8.967,-36.942 -56.935,-88.906 -122.173,-44.952 68.834,-20.614 125.558,30.809 106.149,107.986 11.116,-15.914 18.002,-31.479 17.024,-47.001 55.963,11.235 55.812,60.96 35.758,93.89 35.278,-24.756 31.71,-101.18 -36.758,-109.923 z m -280.675,2.313 c -39.954,-57.727 -163.857,-0.627 -96.316,93.856 -29.322,-92.656 64.547,-124.468 96.316,-93.856 z"
       inkscape:connector-curvature="0" /></g></svg>