<?xml version="1.0" encoding="UTF-8" standalone="no"?><!DOCTYPE svg PUBLIC "-//W3C//DTD SVG 1.1//EN" "http://www.w3.org/Graphics/SVG/1.1/DTD/svg11.dtd"><svg width="100%" height="100%" viewBox="0 0 1000 1000" version="1.1" xmlns="http://www.w3.org/2000/svg" xmlns:xlink="http://www.w3.org/1999/xlink" xml:space="preserve" style="fill-rule:evenodd;clip-rule:evenodd;stroke-linejoin:round;stroke-miterlimit:1.41421;"><circle cx="500" cy="500" r="500" style="fill:#5d9fb3;"/><path d="M918.008,333.16c20.638,51.602 31.992,107.906 31.992,166.84c0,248.362 -201.638,450 -450,450c-129.178,0 -245.716,-54.548 -327.817,-141.848l745.825,-474.992Zm-458.56,152.658c4.868,-13.853 37.942,-65.746 125.869,-65.64c28.359,0.034 134.334,-20.482 185,-38.724c0,0 -524.345,326.593 -549.833,343.245c-52.39,34.228 -183.081,-58.184 -136.388,-135.689c-20.764,-25.769 -31.757,-150.329 103.434,-186.349c44.77,-69.923 151.504,-41.065 151.596,12.517c-37.256,10.112 -65.061,45.606 -64,73.808c40.433,-102.129 198.013,-87.518 184.322,-3.168c-0.576,1.636 -0.757,2.742 -0.589,3.168c0.223,-1.066 0.419,-2.123 0.589,-3.168Zm-328.445,87.041c-32.355,32.099 -26.352,89.55 16.201,103.318c-39.455,-32.519 -28.122,-107.467 40.326,-127.637c-22.087,-1.496 -36.287,5.753 -46.046,14.699c-15.584,-41.022 25.229,-67.708 60.611,-74.253c-45.547,-14.053 -94.193,36.56 -71.092,83.873Zm359.992,-226.203l-43.579,-6.133l-16.264,9.823l4.715,38.142l11.403,0.035l22.514,27.167l16.022,-6.951l14.194,-46.527l-9.005,-15.556Zm71.802,19.976l-10.546,-8.215l-23.251,3.371l-4.579,10.408l-2.176,17.65l15.885,11.587l27.129,-17.824l-2.462,-16.977Zm193.878,-9.81l20.125,-38.839l-5.162,-35.296l-40.524,-1.567l-16.364,23.286l-25.661,20.525l18.173,34.994l49.413,-3.103Z" style="fill:#fff;"/></svg>