<?xml version="1.0" encoding="UTF-8" standalone="no"?><!DOCTYPE svg PUBLIC "-//W3C//DTD SVG 1.1//EN" "http://www.w3.org/Graphics/SVG/1.1/DTD/svg11.dtd"><svg width="100%" height="100%" viewBox="0 0 1000 1000" version="1.1" xmlns="http://www.w3.org/2000/svg" xmlns:xlink="http://www.w3.org/1999/xlink" xml:space="preserve" style="fill-rule:evenodd;clip-rule:evenodd;stroke-linejoin:round;stroke-miterlimit:1.41421;"><circle cx="500" cy="500" r="500" style="fill:#73a22e;"/><path d="M440.504,548.784l12.723,-7.346c11.454,12.916 28.17,21.062 46.773,21.062c18.603,0 35.319,-8.146 46.773,-21.062l12.723,7.346c-38.45,79.412 -9.533,176.361 68.081,221.172c56.139,32.411 123.161,29.121 174.702,-2.806c-68.687,54.797 -166.688,65.168 -247.333,18.607c-21.198,-12.239 -39.589,-27.482 -54.946,-44.884c-15.357,17.402 -33.748,32.645 -54.946,44.884c-80.645,46.561 -178.646,36.19 -247.333,-18.607c51.541,31.927 118.563,35.217 174.702,2.806c77.614,-44.811 106.531,-141.76 68.081,-221.172Zm-139.489,-69.038c12.729,1.271 25.257,4.132 36.938,8.037c-0.3,4.033 -0.453,8.107 -0.453,12.217c0,64.688 37.88,120.598 92.649,146.74c-2.337,12.165 -5.954,24.633 -11.081,36.183c-70.112,-31.098 -119.068,-101.338 -119.068,-182.923c0,-6.837 0.344,-13.593 1.015,-20.254Zm397.854,-1.117c0.748,7.022 1.131,14.152 1.131,21.371c0,81.186 -48.479,151.139 -118.043,182.465c-5.265,-11.659 -9.051,-23.94 -11.512,-36.01c54.449,-26.262 92.055,-82.001 92.055,-146.455c0,-4.333 -0.17,-8.626 -0.504,-12.874c11.702,-4.058 24.308,-7.161 36.873,-8.497Zm-186.369,-54.546c87.999,-6.407 157.5,-79.924 157.5,-169.546c0,-64.823 -36.36,-121.221 -89.781,-149.893c81.8,32.086 139.781,111.772 139.781,204.893c0,24.477 -4.006,48.026 -11.398,70.027c22.749,4.598 45.146,12.903 66.344,25.142c80.645,46.561 120.664,136.617 107.552,223.5c1.879,-60.599 -28.782,-120.287 -84.921,-152.699c-77.614,-44.811 -176.033,-21.379 -225.581,51.626l-12.703,-7.334c2.08,-6.222 3.207,-12.88 3.207,-19.799c0,-30.214 -21.487,-55.45 -50,-61.247l0,-14.67Zm-84.496,103.05c-49.548,-73.005 -147.967,-96.437 -225.581,-51.626c-56.139,32.412 -86.8,92.1 -84.921,152.699c-13.112,-86.883 26.907,-176.939 107.552,-223.5c21.198,-12.239 43.595,-20.544 66.344,-25.142c-7.392,-22.001 -11.398,-45.55 -11.398,-70.027c0,-93.121 57.981,-172.807 139.781,-204.893c-53.421,28.672 -89.781,85.07 -89.781,149.893c0,89.622 69.501,163.139 157.5,169.546l0,14.67c-28.513,5.797 -50,31.033 -50,61.247c0,6.919 1.127,13.577 3.207,19.799l-12.703,7.334Zm-45.925,-188.644c33.072,-24.198 73.841,-38.489 117.921,-38.489c43.678,0 84.104,14.031 117.013,37.829c-7.465,10.383 -16.205,19.796 -25.424,27.956c-26.086,-17.844 -57.628,-28.285 -91.589,-28.285c-34.197,0 -65.942,10.586 -92.131,28.658c-9.362,-8.1 -18.35,-17.46 -25.79,-27.669Z" style="fill:#fff;"/></svg>