<?xml version="1.0" encoding="UTF-8" standalone="no"?><!DOCTYPE svg PUBLIC "-//W3C//DTD SVG 1.1//EN" "http://www.w3.org/Graphics/SVG/1.1/DTD/svg11.dtd"><svg width="100%" height="100%" viewBox="0 0 1000 1000" version="1.1" xmlns="http://www.w3.org/2000/svg" xmlns:xlink="http://www.w3.org/1999/xlink" xml:space="preserve" style="fill-rule:evenodd;clip-rule:evenodd;stroke-linejoin:round;stroke-miterlimit:1.41421;"><circle cx="500" cy="500" r="500" style="fill:#746547;"/><path d="M916.992,330.642c21.281,52.287 33.008,109.464 33.008,169.358c0,248.362 -201.638,450 -450,450c-248.362,0 -450,-201.638 -450,-450c0,-15.676 0.803,-31.165 2.371,-46.429l387.629,26.429l-40,165l75,130l-75,125l100,-125l-50,-150l160,-255l306.992,-39.358Zm-436.989,117.388l-38.554,-108.793l-70.029,-17.237l-20.613,36.918l21.883,70.43l107.313,18.682Zm75.561,-172.394l-70.561,18.139l31.978,133.534l37.635,-74.306l0.948,-77.367Z" style="fill:#fff;"/></svg>