<?xml version="1.0" encoding="UTF-8" standalone="no"?><!DOCTYPE svg PUBLIC "-//W3C//DTD SVG 1.1//EN" "http://www.w3.org/Graphics/SVG/1.1/DTD/svg11.dtd"><svg width="100%" height="100%" viewBox="0 0 1000 1000" version="1.1" xmlns="http://www.w3.org/2000/svg" xmlns:xlink="http://www.w3.org/1999/xlink" xml:space="preserve" style="fill-rule:evenodd;clip-rule:evenodd;stroke-linejoin:round;stroke-miterlimit:1.41421;"><circle cx="500" cy="500" r="500" style="fill:#aa8e61;"/><path d="M897.785,289.545c33.33,62.815 52.215,134.447 52.215,210.455c0,248.362 -201.638,450 -450,450c-135.309,0 -256.75,-59.849 -339.272,-154.497l63.272,-80.503l176,-70l62,-104.781l289,-98.583l146.785,-152.091Zm-595.758,339.875l-51.551,-77.192l-82.435,-23.768l-30.836,40.307l-0.276,39.495l-17.024,22.963l61.182,54.088l33.382,0.02l87.558,-55.913Zm78.054,-24.66l-29.154,23.289l-30.206,-33.279l3.137,-26.888l41.863,-21.422l37.453,1.935l-23.093,56.365Zm-73.488,-56.242l70.472,-52.323l3.734,-83.157l-54.837,-36.072l-108.445,46.781l-4.394,63.285l53.753,24.587l39.717,36.899Zm163.942,-138.277l48.47,32.888l-35.714,48.851l-53.632,23.263l2.144,-58.718l-9.634,-22.211l48.366,-24.073Zm94.021,33.978l5.501,9.528l8.329,6.499l44.591,-12.08l-7.818,-33.163l-8.894,-12.613l-19.424,4.616l-22.285,37.213Zm92.398,-110.41l-6.634,3.393l-8.444,1.699l-10.871,24.769l23.562,13.296l11.303,-2.622l10.686,-14.476l-19.602,-26.059Z" style="fill:#fff;"/></svg>