<?xml version="1.0" encoding="UTF-8" standalone="no"?><!DOCTYPE svg PUBLIC "-//W3C//DTD SVG 1.1//EN" "http://www.w3.org/Graphics/SVG/1.1/DTD/svg11.dtd"><svg width="100%" height="100%" viewBox="0 0 1000 1000" version="1.1" xmlns="http://www.w3.org/2000/svg" xmlns:xlink="http://www.w3.org/1999/xlink" xml:space="preserve" style="fill-rule:evenodd;clip-rule:evenodd;stroke-linejoin:round;stroke-miterlimit:1.41421;"><circle cx="500" cy="500" r="500" style="fill:#669730;"/><path d="M566.49,634.473l99.735,201.711c-50.108,24.846 -106.548,38.816 -166.225,38.816c-59.677,0 -116.117,-13.97 -166.225,-38.816l99.735,-201.711c20.043,9.939 42.619,15.527 66.49,15.527c23.871,0 46.447,-5.588 66.49,-15.527Zm16.709,-259.272l124.8,-187.199c94.383,63.081 158.596,167.836 166.235,287.863l-224.54,14.481c-3.056,-48.011 -28.741,-89.913 -66.495,-115.145Zm-166.398,0c-37.754,25.232 -63.439,67.134 -66.495,115.145l-224.54,-14.481c7.639,-120.027 71.852,-224.782 166.235,-287.863l124.8,187.199Z" style="fill:#fff;"/><circle cx="500" cy="500" r="100" style="fill:#fff;"/></svg>