<?xml version="1.0" encoding="UTF-8" standalone="no"?><!DOCTYPE svg PUBLIC "-//W3C//DTD SVG 1.1//EN" "http://www.w3.org/Graphics/SVG/1.1/DTD/svg11.dtd"><svg width="100%" height="100%" viewBox="0 0 1000 1000" version="1.1" xmlns="http://www.w3.org/2000/svg" xmlns:xlink="http://www.w3.org/1999/xlink" xml:space="preserve" style="fill-rule:evenodd;clip-rule:evenodd;stroke-linejoin:round;stroke-miterlimit:1.41421;"><circle cx="500" cy="500" r="500" style="fill:#3e4e59;"/><path d="M152.67,786l308.652,0c-0.076,1.356 -0.115,2.724 -0.115,4.102c0,35.869 26.15,58.898 58.359,58.898c32.209,0 58.359,-23.029 58.359,-58.898c0,-1.378 -0.039,-2.746 -0.115,-4.102l269.52,0c-82.563,100.127 -207.546,164 -347.33,164c-139.784,0 -264.767,-63.873 -347.33,-164Zm336.097,1.055c16.186,8.437 44.073,11.701 61.898,3.841c2.239,46.138 -69.599,39.022 -61.898,-3.841Zm-21.56,-69.228c41.268,21.251 87.345,21.537 121.394,0c-2.311,69.197 -124.106,50.776 -121.394,0Zm-12.604,-75.325c54.5,34.322 127.036,30.103 156.311,5.781c1.308,68.7 -147.01,76.552 -156.311,-5.781Zm-3.587,-74.146c63.429,46.383 158.668,31.124 191.396,12.97c-14.247,70.659 -186.385,73.025 -191.396,-12.97Zm0,-57.089c71.16,26.914 197.344,14.301 247.514,-18.92c-5.011,84.205 -237.968,97.823 -247.514,18.92Zm-26.934,-70.095c104.512,25.609 221.395,17.792 303.387,-23.616c15.937,74.608 -284.605,112.696 -303.387,23.616Zm-109.082,-89.098c130,37.646 340.343,36.862 449,-11c7.277,86.401 -410.338,116.264 -449,11Zm448.508,-86.501c18.94,59.809 -118.18,83.109 -277.508,75.427c-116.974,-5.64 -263,-26.235 -263,-62.426c0,-49.959 93.712,-83.578 179,-95.574c400.124,-56.28 424.792,112.243 28.978,82.573c247.471,-15.658 254.917,-84.726 0,-43.573c-360.14,58.14 166.922,127.173 332.53,43.573Z" style="fill:#fff;"/></svg>