<?xml version="1.0" encoding="UTF-8" standalone="no"?><!DOCTYPE svg PUBLIC "-//W3C//DTD SVG 1.1//EN" "http://www.w3.org/Graphics/SVG/1.1/DTD/svg11.dtd"><svg width="100%" height="100%" viewBox="0 0 1000 1000" version="1.1" xmlns="http://www.w3.org/2000/svg" xmlns:xlink="http://www.w3.org/1999/xlink" xml:space="preserve" style="fill-rule:evenodd;clip-rule:evenodd;stroke-linejoin:round;stroke-miterlimit:1.41421;"><circle cx="500" cy="500" r="500" style="fill:#297c89;"/><path d="M111,662.11l0,-48.119l75,-49.994l75,49.994l0,72.765c-17.181,13.332 -46.791,-13.672 -61,-41.62c-14.852,27.612 -55.062,68.225 -89,16.974Zm165,-68.118l0,14.999l-90,-59.992l-90,59.992l0,-14.999l90,-59.992l90,59.992Z" style="fill:#fff;"/><path d="M89.054,683.512c5.916,-6.22 10.946,-12.144 10.946,-12.144c33.341,40.619 66.674,38.739 100,0c35.512,43.83 68.778,42.481 100,0c490.169,242.633 538.809,-421.731 185.581,-357.925l-0.001,0c56.258,3.337 55.916,79.471 14.42,98.245c-62.391,28.228 -159.907,-59.995 -87.935,-130.65c-34.836,10.532 -42.427,47.417 -40.234,68.159c-75.813,-121.081 336.393,-336.065 560.64,26.113c11.413,39.601 17.529,81.437 17.529,124.69c0,248.362 -201.638,450 -450,450c-183.016,0 -340.661,-109.492 -410.946,-266.488Zm556.738,-396.758c44.465,26.401 106.124,112.168 108.512,182.852c19.012,-80.232 -53.164,-171.81 -108.512,-182.852Zm-92.52,-39.984c87.412,1.412 133.72,19.502 193.552,88.018c-17.88,-62.314 -86.508,-113.284 -193.552,-88.018Z" style="fill:#fff;"/></svg>